<svg width="116" height="33" viewBox="0 0 116 33" fill="none" xmlns="http://www.w3.org/2000/svg">
    <path d="M1.61889 31.7959L6.81118 8.32678L0 9.30623L1.5794 2.3559L18.3606 0.15213L11.3125 31.7959H1.61889Z" fill="black"/>
    <path d="M45.4473 8.19363C43.9666 7.32719 42.1306 6.89397 39.9194 6.89397C37.7082 6.89397 35.8327 7.51554 34.2928 8.75869C32.7529 10.0018 31.6868 11.7347 31.0945 13.9762H31.213C32.0027 13.1662 32.9306 12.5258 34.0164 12.0361C35.1022 11.5464 36.267 11.3015 37.5503 11.3015C39.8997 11.3015 41.7752 12.0738 43.1572 13.6371C44.5392 15.2005 45.2302 17.3289 45.2302 20.0412C45.2302 22.2073 44.6774 24.2604 43.5718 26.2193C42.4662 28.1594 40.946 29.6662 39.0507 30.7022C37.1357 31.757 34.9838 32.2844 32.5752 32.2844C29.0808 32.2844 26.2773 31.1919 24.2241 29.0258C22.1511 26.8597 21.1245 23.8648 21.1245 20.0412C21.1245 16.1988 21.9537 12.7518 23.6121 9.68164C25.2704 6.61144 27.5606 4.25699 30.443 2.59945C33.3451 0.960755 36.6027 0.131989 40.2155 0.131989C42.8808 0.131989 45.1907 0.452194 47.1057 1.11144L45.4473 8.19363ZM36.1881 20.983C36.1881 20.0035 35.9709 19.2125 35.5366 18.6286C35.1022 18.0446 34.4902 17.7433 33.7005 17.7433C32.6936 17.7433 31.8645 18.1765 31.213 19.0429C30.5812 19.9094 30.2653 20.983 30.2653 22.2827C30.2653 23.3186 30.5022 24.072 30.9563 24.5806C31.4104 25.0892 31.9829 25.334 32.6739 25.334C33.6808 25.334 34.51 24.9008 35.1812 24.0344C35.8524 23.1679 36.1881 22.1508 36.1881 20.983Z" fill="black"/>
    <path d="M73.778 12.5823C73.778 14.6731 73.4819 16.7262 72.9093 18.7227C72.3368 20.7193 71.4879 22.6029 70.3428 24.3546C69.2175 26.1063 67.8157 27.6131 66.1179 28.8751C64.4398 30.1371 62.7024 31.0224 60.9256 31.5309C59.1488 32.0395 57.0758 32.2844 54.6672 32.2844C53.3247 32.2844 52.0415 32.1713 50.7977 31.9642C49.5539 31.7381 48.5273 31.4933 47.7573 31.2107L49.2183 24.2416C49.8303 24.5806 50.699 24.882 51.8638 25.1457C53.0088 25.3905 54.1144 25.5224 55.1805 25.5224C59.6621 25.5224 62.505 23.1491 63.7093 18.4214H63.6106C62.6432 19.382 61.6758 20.0601 60.7479 20.4556C59.8003 20.8323 58.7144 21.0395 57.4509 21.0395C55.2003 21.0395 53.3247 20.2296 51.844 18.6286C50.3633 17.0087 49.6329 14.8991 49.6329 12.2998C49.6329 10.0772 50.1857 7.98643 51.311 6.0652C52.4363 4.12514 53.9565 2.65596 55.8518 1.65767C57.7668 0.64055 59.9385 0.131989 62.3668 0.131989C65.881 0.131989 68.6647 1.26212 70.6982 3.50356C72.7514 5.70733 73.778 8.7587 73.778 12.5823ZM64.7754 10.2844C64.7754 9.39911 64.5187 8.64568 64.0449 7.98643C63.5514 7.34602 62.9196 7.02582 62.1694 7.02582C61.2217 7.02582 60.4518 7.45904 59.82 8.34431C59.1883 9.21075 58.8724 10.2467 58.8724 11.4334C58.8724 12.3751 59.1093 13.1474 59.5634 13.7313C60.0174 14.3152 60.6295 14.6166 61.3994 14.6166C62.3471 14.6166 63.1565 14.221 63.808 13.4299C64.4595 12.6388 64.7754 11.584 64.7754 10.2844Z" fill="black"/>
    <path d="M98.3769 31.4553C107.241 31.4553 114.428 24.5993 114.428 16.142C114.428 7.68463 107.241 0.828613 98.3769 0.828613C89.5123 0.828613 82.3262 7.68463 82.3262 16.142C82.3262 24.5993 89.5123 31.4553 98.3769 31.4553Z" fill="#FAFA4D"/>
    <path d="M98.3774 32.2842C89.0391 32.2842 81.458 25.0514 81.458 16.1421C81.458 7.23287 89.0391 0 98.3774 0C107.716 0 115.297 7.23287 115.297 16.1421C115.297 25.0514 107.696 32.2842 98.3774 32.2842ZM98.3774 1.67637C90.0065 1.67637 83.2151 8.17465 83.2151 16.1421C83.2151 24.1096 90.0263 30.6079 98.3774 30.6079C106.728 30.6079 113.54 24.1096 113.54 16.1421C113.54 8.17465 106.728 1.67637 98.3774 1.67637Z" fill="black"/>
    <path d="M97.8243 13.6749C97.8243 14.4283 97.5479 15.0499 97.0148 15.5961C96.4818 16.1235 95.7513 16.4625 94.8629 16.6132V16.6321C95.6131 16.8958 96.0869 17.4797 96.2843 18.3838L96.8569 20.9454H93.5796L93.2045 18.7605C93.1255 18.3461 92.9873 18.0447 92.7899 17.8187C92.5925 17.5927 92.2963 17.4985 91.9015 17.4985H91.8817L91.1118 20.9454H88.0122L90.1839 11.1132H94.2311C95.3762 11.1132 96.2646 11.3392 96.8964 11.7725C97.5084 12.2434 97.8243 12.8649 97.8243 13.6749ZM94.5272 14.2211C94.5272 13.9009 94.4285 13.6372 94.2509 13.4488C94.0534 13.2605 93.777 13.1663 93.4019 13.1663H92.8491L92.3161 15.4077H93.0071C93.4809 15.4077 93.8363 15.2947 94.1127 15.0499C94.3891 14.8427 94.5272 14.5601 94.5272 14.2211Z" fill="black"/>
    <path d="M102.721 21.1335C101.437 21.1335 100.47 20.8321 99.779 20.2482C99.0881 19.6643 98.7524 18.8167 98.7524 17.7054C98.7524 17.291 98.8314 16.6883 99.0091 15.8783L100.075 11.1318H103.195L102.109 15.916C102.049 16.1986 101.99 16.4622 101.931 16.7071C101.872 16.952 101.852 17.178 101.852 17.3664C101.852 17.7619 101.951 18.0633 102.168 18.2893C102.385 18.5153 102.681 18.6095 103.076 18.6095C103.53 18.6095 103.885 18.4588 104.162 18.1575C104.438 17.8561 104.636 17.3852 104.794 16.7071L106.037 11.1318H109.157L107.873 16.8766C107.617 17.9879 107.261 18.8544 106.847 19.4383C106.413 20.0222 105.86 20.4554 105.189 20.7191C104.517 21.0016 103.688 21.1335 102.721 21.1335Z" fill="black"/>
    <path d="M81.1615 29.2894C81.1615 30.137 80.8456 30.8716 80.1941 31.4743C79.5426 32.077 78.7726 32.3784 77.8842 32.3784C76.9958 32.3784 76.2258 32.077 75.5743 31.4743C74.9228 30.8716 74.6069 30.137 74.6069 29.2894C74.6069 28.4418 74.9228 27.7072 75.5743 27.0856C76.2258 26.464 76.9958 26.1627 77.8842 26.1627C78.7726 26.1627 79.5426 26.464 80.1941 27.0856C80.8456 27.7072 81.1615 28.4418 81.1615 29.2894Z" fill="black"/>
</svg>
