<svg width="52" height="33" viewBox="0 0 52 33" fill="none" xmlns="http://www.w3.org/2000/svg">
    <rect x="9" y="20" width="8" height="12" fill="white"/>
    <rect x="19" y="20" width="14" height="12" fill="white"/>
    <rect x="36" y="20" width="8" height="12" fill="white"/>
    <path
            d="M21 1.04875C21 0.477792 21.4773 0.0227263 22.0476 0.0498841L30.5476 0.454646C31.0808 0.480036 31.5 0.919721 31.5 1.45351V11.5C31.5 12.0523 31.0523 12.5 30.5 12.5H22C21.4477 12.5 21 12.0523 21 11.5V1.04875Z"
            fill="white"/>
    <path
            d="M34 1.04875C34 0.477792 34.4773 0.0227263 35.0476 0.0498841L43.5476 0.454646C44.0808 0.480036 44.5 0.919721 44.5 1.45351V11.5C44.5 12.0523 44.0523 12.5 43.5 12.5H35C34.4477 12.5 34 12.0523 34 11.5V1.04875Z"
            fill="white"/>
    <path
            d="M8 1.04875C8 0.477792 8.47725 0.0227263 9.04757 0.0498841L17.5476 0.454646C18.0808 0.480036 18.5 0.919721 18.5 1.45351V11C18.5 11.5523 18.0523 12 17.5 12H9C8.44772 12 8 11.5523 8 11V1.04875Z"
            fill="white"/>
    <path
            d="M33.1562 19.1916C22.7048 19.1916 29.4919 19.1916 19.3608 19.1916C19.1087 19.1916 18.955 19.3115 18.955 19.6052V32.3681C18.955 32.6618 19.1087 32.8999 19.3608 32.8999H33.1562C33.4083 32.8999 33.562 32.6618 33.562 32.3681V19.6052C33.562 19.3115 33.4083 19.1916 33.1562 19.1916ZM32.6489 31.8363H19.8678V20.137H32.6489V31.8363Z"
            fill="#888888"/>
    <path
            d="M16.6729 19.1916C16.2164 19.1916 9.0271 19.1916 8.51358 19.1916C8.22998 19.1916 8.00006 19.4277 8.00006 19.7189V32.3727C8.00006 32.6638 8.22998 32.8999 8.51358 32.8999H16.6729C16.9565 32.8999 17.1293 32.6638 17.1293 32.3727V19.7189C17.1293 19.4277 16.9565 19.1916 16.6729 19.1916ZM16.2164 31.8454H9.0271V25.5185H16.2164V31.8454ZM16.2164 24.464H9.0271V20.2461C11.4269 20.2461 13.5965 20.2461 16.2164 20.2461V24.464Z"
            fill="#888888"/>
    <path
            d="M14.0251 21.9333H11.1038C10.9021 21.9333 10.7386 22.1379 10.7386 22.3902C10.7386 22.6426 10.9021 22.8472 11.1038 22.8472H14.0251C14.2268 22.8472 14.3903 22.6426 14.3903 22.3902C14.3903 22.1379 14.2268 21.9333 14.0251 21.9333Z"
            fill="#888888"/>
    <path
            d="M41.4131 21.9333H38.4918C38.2902 21.9333 38.1267 22.1379 38.1267 22.3902C38.1267 22.6426 38.2902 22.8472 38.4918 22.8472H41.4131C41.6148 22.8472 41.7783 22.6426 41.7783 22.3902C41.7783 22.1379 41.6148 21.9333 41.4131 21.9333Z"
            fill="#888888"/>
    <path
            d="M28.0844 22.2988V25.2233C28.0844 25.4251 28.289 25.5888 28.5413 25.5888C28.7936 25.5888 28.9982 25.4251 28.9982 25.2233V22.2988C28.9982 22.0969 28.7936 21.9333 28.5413 21.9333C28.289 21.9333 28.0844 22.0969 28.0844 22.2988Z"
            fill="#888888"/>
    <path
            d="M23.5197 22.2988V25.2233C23.5197 25.4251 23.7243 25.5888 23.9766 25.5888C24.229 25.5888 24.4336 25.4251 24.4336 25.2233V22.2988C24.4336 22.0969 24.229 21.9333 23.9766 21.9333C23.7243 21.9333 23.5197 22.0969 23.5197 22.2988Z"
            fill="#888888"/>
    <path
            d="M44.0608 19.1916C43.6044 19.1916 36.4151 19.1916 35.9015 19.1916C35.618 19.1916 35.388 19.4277 35.388 19.7189V32.3727C35.388 32.6638 35.618 32.8999 35.9015 32.8999H44.0608C44.3444 32.8999 44.5173 32.6638 44.5173 32.3727V19.7189C44.5173 19.4277 44.3444 19.1916 44.0608 19.1916ZM43.6044 31.8454H36.4151V25.5185H43.6044V31.8454ZM43.6044 24.464H36.4151V20.2461C38.8259 20.2461 40.8626 20.2461 43.6044 20.2461V24.464Z"
            fill="#888888"/>
    <path fill-rule="evenodd" clip-rule="evenodd"
          d="M26.4714 19.1916H25.5576V32.8999H26.4714V19.1916Z" fill="#888888"/>
    <path
            d="M15.3977 9.08174H11.5687C11.3044 9.08174 11.0901 9.31191 11.0901 9.59581C11.0901 9.87969 11.3044 10.1099 11.5687 10.1099H15.3977C15.662 10.1099 15.8763 9.87969 15.8763 9.59581C15.8763 9.31191 15.662 9.08174 15.3977 9.08174Z"
            fill="#888888"/>
    <path fill-rule="evenodd" clip-rule="evenodd"
          d="M18.0527 0.913886H8.91389L8.91389 11.8805H18.0527V0.913886ZM8.91389 0C8.40916 0 8 0.409161 8 0.913886V11.8805C8 12.3852 8.40916 12.7944 8.91389 12.7944H18.0527C18.5575 12.7944 18.9666 12.3852 18.9666 11.8805V0.913886C18.9666 0.409161 18.5575 0 18.0527 0H8.91389Z"
          fill="#888888"/>
    <path
            d="M28.1922 9.08174H24.3631C24.0988 9.08174 23.8845 9.31191 23.8845 9.59581C23.8845 9.87969 24.0988 10.1099 24.3631 10.1099H28.1922C28.4565 10.1099 28.6708 9.87969 28.6708 9.59581C28.6708 9.31191 28.4565 9.08174 28.1922 9.08174Z"
            fill="#888888"/>
    <path fill-rule="evenodd" clip-rule="evenodd"
          d="M30.8472 0.913886H21.7083V11.8805H30.8472V0.913886ZM21.7083 0C21.2036 0 20.7944 0.409161 20.7944 0.913886V11.8805C20.7944 12.3852 21.2036 12.7944 21.7083 12.7944H30.8472C31.3519 12.7944 31.761 12.3852 31.761 11.8805V0.913886C31.761 0.409161 31.3519 0 30.8472 0H21.7083Z"
          fill="#888888"/>
    <path
            d="M41.231 9.08174H37.4019C37.1376 9.08174 36.9233 9.31191 36.9233 9.59581C36.9233 9.87969 37.1376 10.1099 37.4019 10.1099H41.231C41.4953 10.1099 41.7096 9.87969 41.7096 9.59581C41.7096 9.31191 41.4953 9.08174 41.231 9.08174Z"
            fill="#888888"/>
    <path fill-rule="evenodd" clip-rule="evenodd"
          d="M43.6416 0.913886H34.5027V11.8805H43.6416V0.913886ZM34.5027 0C33.998 0 33.5888 0.409161 33.5888 0.913886V11.8805C33.5888 12.3852 33.998 12.7944 34.5027 12.7944H43.6416C44.1463 12.7944 44.5554 12.3852 44.5554 11.8805V0.913886C44.5554 0.409161 44.1463 0 43.6416 0H34.5027Z"
          fill="#888888"/>
</svg>