<svg width="52" height="33" viewBox="0 0 52 33" fill="none" xmlns="http://www.w3.org/2000/svg">
    <rect x="6" y="4" width="40" height="26" fill="white"/>
    <path fill-rule="evenodd" clip-rule="evenodd"
          d="M43.3604 30.7999H8.39706C6.52425 30.7999 5.00049 29.2745 5.00049 27.4001V6.40011C5.00049 4.52536 6.52426 3 8.39706 3H43.3604C45.2332 3 46.757 4.52536 46.757 6.40011V27.4001C46.757 29.2745 45.2332 30.7999 43.3604 30.7999ZM8.39706 4.19998C7.18504 4.19998 6.19922 5.18683 6.19922 6.40011V27.4001C6.19922 28.6131 7.18505 29.5999 8.39706 29.5999H43.3604C44.5724 29.5999 45.5583 28.6131 45.5583 27.4001V6.40011C45.5583 5.18683 44.5724 4.19998 43.3604 4.19998H8.39706Z"
          fill="#888888"/>
    <path fill-rule="evenodd" clip-rule="evenodd"
          d="M16.0895 22.3999C14.6018 22.3999 13.3921 21.1889 13.3921 19.7C13.3921 18.211 14.6018 17 16.0895 17C17.5768 17 18.7865 18.211 18.7865 19.7C18.7865 21.1889 17.5768 22.3999 16.0895 22.3999ZM16.0895 18.2C15.2629 18.2 14.5908 18.8725 14.5908 19.7C14.5908 20.5271 15.2629 21.1999 16.0895 21.1999C16.9157 21.1999 17.5878 20.5271 17.5878 19.7C17.5878 18.8725 16.9157 18.2 16.0895 18.2Z"
          fill="#888888"/>
    <path fill-rule="evenodd" clip-rule="evenodd"
          d="M42.6615 14.0001H27.2774C26.9466 14.0001 26.6782 13.7318 26.6782 13.4C26.6782 13.0681 26.9466 12.7998 27.2774 12.7998H42.6615C42.9923 12.7998 43.2607 13.0681 43.2607 13.4C43.2607 13.7318 42.9923 14.0001 42.6615 14.0001Z"
          fill="#888888"/>
    <path fill-rule="evenodd" clip-rule="evenodd"
          d="M42.6615 18.2H27.2774C26.9466 18.2 26.6782 17.9317 26.6782 17.5998C26.6782 17.268 26.9465 17 27.2774 17H42.6615C42.9924 17 43.2607 17.268 43.2607 17.5998C43.2607 17.9317 42.9923 18.2 42.6615 18.2Z"
          fill="#888888"/>
    <path fill-rule="evenodd" clip-rule="evenodd"
          d="M42.6615 26.5999H27.2774C26.9465 26.5999 26.6782 26.3318 26.6782 26.0001C26.6782 25.6682 26.9466 25.3999 27.2774 25.3999H42.6615C42.9923 25.3999 43.2607 25.6682 43.2607 26.0001C43.2607 26.3318 42.9924 26.5999 42.6615 26.5999Z"
          fill="#888888"/>
    <path fill-rule="evenodd" clip-rule="evenodd"
          d="M42.6615 22.4002H27.2774C26.9466 22.4002 26.6782 22.1319 26.6782 21.8C26.6782 21.4682 26.9465 21.2002 27.2774 21.2002H42.6615C42.9924 21.2002 43.2607 21.4682 43.2607 21.8C43.2607 22.1319 42.9923 22.4002 42.6615 22.4002Z"
          fill="#888888"/>
    <path fill-rule="evenodd" clip-rule="evenodd"
          d="M21.583 6.99978V8.59976H23.1812V6.99978H21.583ZM23.7804 9.79974H20.9835C20.6525 9.79974 20.3843 9.53171 20.3843 9.19991V6.39995C20.3843 6.0681 20.6526 5.7998 20.9835 5.7998H23.7804C24.1113 5.7998 24.3799 6.06816 24.3799 6.39995V9.19991C24.3799 9.53165 24.1114 9.79974 23.7804 9.79974Z"
          fill="#888888"/>
    <path fill-rule="evenodd" clip-rule="evenodd"
          d="M8.99606 6.99978V8.59976H10.5943V6.99978H8.99606ZM11.1938 9.79974H8.39687C8.06589 9.79974 7.79736 9.53165 7.79736 9.19991V6.39995C7.79736 6.06816 8.06595 5.7998 8.39687 5.7998H11.1938C11.5247 5.7998 11.793 6.0681 11.793 6.39995V9.19991C11.793 9.53171 11.5247 9.79974 11.1938 9.79974Z"
          fill="#888888"/>
    <path fill-rule="evenodd" clip-rule="evenodd"
          d="M22.382 12.5999H18.2716L18.2002 13.4549C18.1101 14.5454 17.1822 15.4002 16.0889 15.4002C14.9952 15.4002 14.0673 14.5453 13.9765 13.4549L13.9059 12.5999H9.7954C9.35419 12.5999 8.99609 12.9584 8.99609 13.4V26.0002C8.99609 26.4415 9.35422 26.8 9.7954 26.8H22.382C22.8232 26.8 23.1813 26.4415 23.1813 26.0002V13.4C23.1813 12.9584 22.8232 12.5999 22.382 12.5999ZM22.382 28H9.7954C8.69403 28 7.79736 27.1026 7.79736 26.0002V13.4C7.79736 12.2975 8.69405 11.3999 9.7954 11.3999H14.4573C14.7689 11.3999 15.0286 11.6388 15.055 11.9505L15.1718 13.3551C15.211 13.829 15.6137 14.2002 16.0889 14.2002C16.5637 14.2002 16.9664 13.8289 17.0056 13.3551L17.1225 11.9505C17.1488 11.6388 17.4085 11.3999 17.7201 11.3999H22.382C23.4837 11.3999 24.38 12.2975 24.38 13.4V26.0002C24.38 27.1026 23.4837 28 22.382 28Z"
          fill="#888888"/>
    <path
            d="M16.0886 15.4999C14.9429 15.4999 13.9717 14.6052 13.8766 13.4629L13.399 7.72838C13.3555 7.20831 13.5332 6.68953 13.8872 6.30533C14.2403 5.91953 14.7422 5.69971 15.264 5.69971H16.9128C17.4346 5.69971 17.9365 5.91953 18.2896 6.30469C18.643 6.68889 18.8207 7.20767 18.7778 7.72774L18.3002 13.4619C18.2051 14.6052 17.2339 15.4999 16.0886 15.4999ZM15.264 7.09969C15.0834 7.09969 14.9688 7.1955 14.9163 7.25221C14.8638 7.30989 14.7781 7.4323 14.7934 7.61206L15.271 13.3466C15.3059 13.7686 15.6654 14.0999 16.0886 14.0999C16.5114 14.0999 16.8709 13.7686 16.9058 13.3466L17.3834 7.61206C17.3981 7.4323 17.313 7.30989 17.2605 7.25221C17.208 7.1955 17.0934 7.09969 16.9128 7.09969H15.264Z"
            fill="#888888"/>
</svg>