
<svg width="58" height="39" viewBox="0 0 58 39" fill="none" xmlns="http://www.w3.org/2000/svg">
    <path
            d="M29.6862 2.90398L37.1761 9.1349L23.6068 25.446C21.8862 27.5143 18.8147 27.7962 16.7464 26.0756C14.6781 24.3549 14.3962 21.2834 16.1169 19.2151L29.6862 2.90398Z"
            fill="white" stroke="#888888"/>
    <path
            d="M40.6954 13.4343L45.3229 22.0082L24.0376 33.4962C21.67 34.774 18.7148 33.8906 17.4369 31.523C16.1591 29.1554 17.0425 26.2002 19.4101 24.9223L40.6954 13.4343Z"
            fill="white" stroke="#888888"/>
    <path d="M45.9517 27.7571L45.9517 37.5L17.9459 37.5L17.9459 27.7571L45.9517 27.7571Z" fill="white"
          stroke="#888888"/>
    <path
            d="M11.5 1.9742H24.4657V32C24.4657 35.0376 22.0033 37.5 18.9657 37.5H17C13.9624 37.5 11.5 35.0376 11.5 32V1.9742Z"
            fill="white" stroke="#888888"/>
    <circle cx="17.9826" cy="31.0171" r="2.18572" stroke="#888888"/>
</svg>