<svg width="58" height="37" viewBox="0 0 58 37" fill="none" xmlns="http://www.w3.org/2000/svg">
    <path
            d="M36.5267 21C25.0904 21 32.5171 21 21.4313 21C21.1554 21 20.9873 21.1312 20.9873 21.4526V35.4181C20.9873 35.7395 21.1554 36 21.4313 36H36.5267C36.8025 36 36.9706 35.7395 36.9706 35.4181V21.4526C36.9706 21.1312 36.8025 21 36.5267 21ZM35.9715 34.8362H21.9861V22.0345H35.9715V34.8362Z"
            fill="#888888"/>
    <path
            d="M18.4901 21C17.9906 21 10.1239 21 9.56197 21C9.25166 21 9.00006 21.2583 9.00006 21.5769V35.4231C9.00006 35.7417 9.25166 36 9.56197 36H18.4901C18.8004 36 18.9896 35.7417 18.9896 35.4231V21.5769C18.9896 21.2583 18.8004 21 18.4901 21ZM17.9906 34.8462H10.1239V27.9231H17.9906V34.8462ZM17.9906 26.7692H10.1239V22.1539C12.7499 22.1539 15.1239 22.1539 17.9906 22.1539V26.7692Z"
            fill="#888888"/>
    <path
            d="M15.5929 24H12.3963C12.1756 24 11.9967 24.2239 11.9967 24.5C11.9967 24.7761 12.1756 25 12.3963 25H15.5929C15.8135 25 15.9924 24.7761 15.9924 24.5C15.9924 24.2239 15.8135 24 15.5929 24Z"
            fill="#888888"/>
    <path
            d="M45.5616 24H42.365C42.1444 24 41.9655 24.2239 41.9655 24.5C41.9655 24.7761 42.1444 25 42.365 25H45.5616C45.7823 25 45.9612 24.7761 45.9612 24.5C45.9612 24.2239 45.7823 24 45.5616 24Z"
            fill="#888888"/>
    <path
            d="M30.9769 24.4V27.6C30.9769 27.8209 31.2007 28 31.4769 28C31.753 28 31.9769 27.8209 31.9769 27.6V24.4C31.9769 24.1791 31.753 24 31.4769 24C31.2007 24 30.9769 24.1791 30.9769 24.4Z"
            fill="#888888"/>
    <path
            d="M25.9821 24.4V27.6C25.9821 27.8209 26.2059 28 26.4821 28C26.7582 28 26.9821 27.8209 26.9821 27.6V24.4C26.9821 24.1791 26.7582 24 26.4821 24C26.2059 24 25.9821 24.1791 25.9821 24.4Z"
            fill="#888888"/>
    <path
            d="M48.4588 21C47.9593 21 40.0926 21 39.5307 21C39.2203 21 38.9688 21.2583 38.9688 21.5769V35.4231C38.9688 35.7417 39.2203 36 39.5307 36H48.4588C48.7691 36 48.9583 35.7417 48.9583 35.4231V21.5769C48.9583 21.2583 48.7691 21 48.4588 21ZM47.9593 34.8462H40.0926V27.9231H47.9593V34.8462ZM47.9593 26.7692H40.0926V22.1539C42.7306 22.1539 44.9592 22.1539 47.9593 22.1539V26.7692Z"
            fill="#888888"/>
    <path fill-rule="evenodd" clip-rule="evenodd" d="M29.212 21H28.212V36H29.212V21Z" fill="#888888"/>
    <path
            d="M17.0948 9.9375H12.905C12.6158 9.9375 12.3813 10.1894 12.3813 10.5C12.3813 10.8106 12.6158 11.0625 12.905 11.0625H17.0948C17.384 11.0625 17.6185 10.8106 17.6185 10.5C17.6185 10.1894 17.384 9.9375 17.0948 9.9375Z"
            fill="#888888"/>
    <path fill-rule="evenodd" clip-rule="evenodd"
          d="M20 1H10L10 13H20V1ZM10 0C9.44772 0 9 0.447716 9 1V13C9 13.5523 9.44772 14 10 14H20C20.5523 14 21 13.5523 21 13V1C21 0.447715 20.5523 0 20 0H10Z"
          fill="#888888"/>
    <path
            d="M31.0949 9.9375H26.905C26.6158 9.9375 26.3813 10.1894 26.3813 10.5C26.3813 10.8106 26.6158 11.0625 26.905 11.0625H31.0949C31.3841 11.0625 31.6186 10.8106 31.6186 10.5C31.6186 10.1894 31.3841 9.9375 31.0949 9.9375Z"
            fill="#888888"/>
    <path fill-rule="evenodd" clip-rule="evenodd"
          d="M34 1H24V13H34V1ZM24 0C23.4477 0 23 0.447716 23 1V13C23 13.5523 23.4477 14 24 14H34C34.5523 14 35 13.5523 35 13V1C35 0.447715 34.5523 0 34 0H24Z"
          fill="#888888"/>
    <path
            d="M45.3623 9.9375H41.1724C40.8832 9.9375 40.6487 10.1894 40.6487 10.5C40.6487 10.8106 40.8832 11.0625 41.1724 11.0625H45.3623C45.6515 11.0625 45.886 10.8106 45.886 10.5C45.886 10.1894 45.6515 9.9375 45.3623 9.9375Z"
            fill="#888888"/>
    <path fill-rule="evenodd" clip-rule="evenodd"
          d="M48 1H38V13H48V1ZM38 0C37.4477 0 37 0.447716 37 1V13C37 13.5523 37.4477 14 38 14H48C48.5523 14 49 13.5523 49 13V1C49 0.447715 48.5523 0 48 0H38Z"
          fill="#888888"/>
</svg>