<svg width="58" height="37" viewBox="0 0 58 37" fill="none" xmlns="http://www.w3.org/2000/svg">
    <path
            d="M13.9962 3H44.0043C45.5156 3 46.965 3.60036 48.0336 4.66901C49.1023 5.73766 49.7027 7.18706 49.7027 8.69836V22.008H8.29785V8.69701C8.29821 7.18594 8.89873 5.73689 9.96734 4.66853C11.0359 3.60018 12.4851 3 13.9962 3Z"
            fill="white" stroke="#888888" stroke-miterlimit="10"/>
    <path d="M7.18652 32.5113V28.6238H8.74856V32.5113H7.18652Z" fill="white" stroke="#888888"
          stroke-miterlimit="10"/>
    <path d="M49.2959 32.5113V28.6238H50.8579V32.5113H49.2959Z" fill="white" stroke="#888888"
          stroke-miterlimit="10"/>
    <path
            d="M47.2286 12.0084C46.6763 12.0084 46.2286 12.4561 46.2286 13.0084V21.0084C46.2286 21.5606 45.7809 22.0084 45.2286 22.0084H12.7714C12.2191 22.0084 11.7714 21.5606 11.7714 21.0084V13.0084C11.7714 12.4561 11.3237 12.0084 10.7714 12.0084H5C4.44771 12.0084 4 12.4561 4 13.0084V22.0084V28.7798C4 29.3321 4.44772 29.7798 5 29.7798H11.7714H46.2286H53C53.5523 29.7798 54 29.3321 54 28.7798V22.0084V13.0084C54 12.4561 53.5523 12.0084 53 12.0084H47.2286Z"
            fill="white" stroke="#888888" stroke-miterlimit="10"/>
</svg>
